<svg id="Layer_1" data-name="Layer 1" xmlns="http://www.w3.org/2000/svg" viewBox="0 0 1090.65 334.48"><defs><style>.cls-1,.cls-2,.cls-9{fill:#fff;}.cls-2,.cls-4,.cls-5,.cls-6,.cls-7{stroke:#fff;stroke-miterlimit:10;}.cls-2{stroke-width:3px;}.cls-3{fill:#144f44;}.cls-4,.cls-5{fill:none;stroke-width:5px;}.cls-5{stroke-linecap:round;}.cls-6{fill:#4d8278;stroke-width:2px;}.cls-7{fill:#5c6161;}.cls-8{fill:#939598;}.cls-9{font-size:32.63px;font-family:Chalkduster;}.cls-10{letter-spacing:-0.09em;}.cls-11{letter-spacing:0em;}.cls-12{letter-spacing:0.01em;}.cls-13{letter-spacing:0em;}.cls-14{letter-spacing:0.01em;}.cls-15{letter-spacing:0.01em;}.cls-16{letter-spacing:0em;}.cls-17{letter-spacing:-0.01em;}.cls-18{letter-spacing:-0.04em;}.cls-19{letter-spacing:0.05em;}</style></defs><path class="cls-1" d="M352.26,565.84c-8.08-19.51-8.38-44.77-23.07-59.47s-39.94-15-59.44-23.13c-18.81-7.82-36.72-25.73-58.35-25.74-7.46,0-14.48,2.14-21.24,5.24l-.06.1c-13.84,5.75-26.54,16.11-39.68,21.55-19.5,8.07-44.77,8.37-59.47,23.06s-15,39.94-23.13,59.44C60,585.7,42.09,603.61,42.08,625.24S60,664.81,67.74,683.63c8.08,19.5,8.38,44.77,23.07,59.47s39.95,15,59.45,23.13C169.06,774.05,187,792,208.61,792c8.24,0,15.94-2.59,23.35-6.23,11.54-5.2,22.33-13.31,33.3-18.69.58-.26,1.15-.51,1.73-.75,15.13-6.26,33.7-7.85,48.14-15.09A45.34,45.34,0,0,0,329.05,742c14.71-14.68,15-39.95,23.14-59.44,7.81-18.81,25.72-36.72,25.74-58.36S360.05,584.65,352.26,565.84Z" transform="translate(-42.08 -457.5)"/><path class="cls-2" d="M341.09,726.36a47.66,47.66,0,1,1-47.63-47.69A47.65,47.65,0,0,1,341.09,726.36Z" transform="translate(-42.08 -457.5)"/><path class="cls-3" d="M341.61,572.28c-7.3-17.62-7.57-40.45-20.84-53.73s-36.09-13.59-53.71-20.9c-17-7.06-33.18-23.25-52.72-23.26-6.74,0-13.08,1.94-19.19,4.74l-.05.08c-12.5,5.21-24,14.56-35.85,19.48-17.63,7.29-40.45,7.56-53.73,20.83s-13.59,36.1-20.91,53.71c-7.06,17-23.24,33.18-23.25,52.72s16.15,35.75,23.19,52.76c7.3,17.62,7.57,40.45,20.84,53.73s36.09,13.58,53.71,20.9c17,7.06,33.17,23.25,52.72,23.26,7.44,0,14.4-2.34,21.1-5.63,10.42-4.7,20.17-12,30.09-16.89.52-.24,1-.46,1.56-.68,13.67-5.65,30.45-7.09,43.5-13.63a41.09,41.09,0,0,0,12.57-8.31c13.29-13.26,13.59-36.09,20.91-53.7,7.06-17,23.24-33.18,23.25-52.73S348.65,589.28,341.61,572.28Z" transform="translate(-42.08 -457.5)"/><path class="cls-4" d="M173.71,576.35h60.58a4.79,4.79,0,0,0,4.78-4.78h0a4.79,4.79,0,0,0-4.78-4.78H173.71a4.8,4.8,0,0,0-4.79,4.78h0A4.8,4.8,0,0,0,173.71,576.35Z" transform="translate(-42.08 -457.5)"/><line class="cls-5" x1="196.26" y1="74.07" x2="129.52" y2="74.06"/><line class="cls-4" x1="162.3" y1="74.65" x2="162.3" y2="109.19"/><line class="cls-5" x1="187.63" y1="120.98" x2="187.33" y2="152.79"/><line class="cls-5" x1="162.08" y1="245.4" x2="162.08" y2="279.38"/><line class="cls-5" x1="138.72" y1="172.86" x2="153.26" y2="172.86"/><line class="cls-5" x1="138.71" y1="189.39" x2="153.67" y2="189.39"/><line class="cls-5" x1="138.71" y1="205.93" x2="153.26" y2="205.93"/><line class="cls-5" x1="138.72" y1="155.79" x2="153.67" y2="155.79"/><line class="cls-5" x1="139.47" y1="140.54" x2="154.03" y2="140.54"/><path class="cls-5" d="M229.91,672.54a17,17,0,0,1-12.48,9.81c-.84.14-4,0-4.83,0H191.83a12.39,12.39,0,0,1-9.85-4.25c-1.75-2.08-2.57-4.57-2.42-9.19l0-91.71" transform="translate(-42.08 -457.5)"/><rect class="cls-4" x="192.96" y="683.12" width="24.09" height="19.46" rx="1.65" transform="translate(-33.78 -459.9) rotate(0.69)"/><path class="cls-1" d="M256.64,630.72a1.63,1.63,0,1,1-2.53-2.07,1.63,1.63,0,0,1,2.53,2.07Z" transform="translate(-42.08 -457.5)"/><path class="cls-1" d="M251.59,653.59a1.64,1.64,0,0,1,2.11-2.52,1.64,1.64,0,1,1-2.11,2.52Z" transform="translate(-42.08 -457.5)"/><path class="cls-1" d="M232.91,642.31a1.64,1.64,0,1,1,2.32-.2A1.67,1.67,0,0,1,232.91,642.31Z" transform="translate(-42.08 -457.5)"/><path class="cls-1" d="M223.91,621.44a1.61,1.61,0,1,1,.18,2.27A1.63,1.63,0,0,1,223.91,621.44Z" transform="translate(-42.08 -457.5)"/><path class="cls-1" d="M217.72,644.07a1.63,1.63,0,1,1,2.27-.13A1.65,1.65,0,0,1,217.72,644.07Z" transform="translate(-42.08 -457.5)"/><path class="cls-1" d="M250.31,669.07a1.63,1.63,0,1,1-.28-2.31A1.66,1.66,0,0,1,250.31,669.07Z" transform="translate(-42.08 -457.5)"/><path class="cls-1" d="M227.66,663a1.61,1.61,0,0,1,2-2.52,1.61,1.61,0,0,1,.26,2.31A1.63,1.63,0,0,1,227.66,663Z" transform="translate(-42.08 -457.5)"/><path class="cls-1" d="M252.88,669.57a4.07,4.07,0,0,0-2.36-5.32.88.88,0,0,1-.66-.93c-.05-1-.16-1.91-.25-2.86-.12-1.33-.51-1.65-1.84-1.57a18.41,18.41,0,0,1-13.18-4.27,18.22,18.22,0,0,1-2.79-2.9,18.68,18.68,0,0,1,.16-23,18.4,18.4,0,0,1,12.59-7c1.14-.14,1.52-.58,1.42-1.72s-.15-2-.28-3a.86.86,0,0,1,.49-1,4.09,4.09,0,0,0,1.84-4.61,4.26,4.26,0,0,0-4-3,4.12,4.12,0,0,0-3.94,3.11,3.86,3.86,0,0,0,1.93,4.54,2,2,0,0,1,1.33,2.19,2,2,0,0,0,.05.55c.1.44,0,.64-.51.7a14.83,14.83,0,0,0-2.92.72c-.58.2-1.24.69-1.7.54s-.55-1.06-.84-1.62a1.24,1.24,0,0,0-1.69-.68,1.22,1.22,0,0,0-.6,1.67c.18.47.37.93.59,1.38s.16.57-.24.81a19,19,0,0,0-2.91,2.14c-.49.43-.92,1.27-1.45,1.22s-1-.81-1.6-1.19-.46-.6-.35-1.08a4.08,4.08,0,0,0-2-4.55,4.2,4.2,0,0,0-5,.78,4.14,4.14,0,0,0-.57,4.88,3.78,3.78,0,0,0,4.53,1.9,2.15,2.15,0,0,1,2.67.69,4.63,4.63,0,0,0,.48.4c.22.15.28.29.09.55a18.85,18.85,0,0,0-2.51,4.68c-.13.34-.31.37-.62.29-.53-.14-1.06-.25-1.6-.35a1.24,1.24,0,1,0-.57,2.42,8.8,8.8,0,0,0,1.33.3c.46.06.6.21.48.7a15.8,15.8,0,0,0-.4,2.91c0,.65.18,1.57-.17,1.88s-1.3.19-2,.3a.91.91,0,0,1-1.08-.52,4,4,0,0,0-4.62-1.77,4.13,4.13,0,0,0,.07,7.93,3.82,3.82,0,0,0,4.57-1.85,2.22,2.22,0,0,1,2.44-1.42,2.42,2.42,0,0,0,.47,0c.37-.09.52,0,.57.42a16.84,16.84,0,0,0,.73,3c.19.56.67,1.2.53,1.65s-1,.53-1.55.81a1.27,1.27,0,0,0-.67,1.6,1.21,1.21,0,0,0,1.63.69,10.2,10.2,0,0,0,1.32-.55c.38-.2.59-.16.8.23a18.54,18.54,0,0,0,2.16,3c.42.49,1.27.92,1.22,1.44s-.8,1-1.19,1.61a.86.86,0,0,1-1.07.37,4,4,0,0,0-4.55,2,4.12,4.12,0,0,0,5.68,5.58,3.85,3.85,0,0,0,1.85-4.57,2,2,0,0,1,.65-2.55,3.64,3.64,0,0,0,.4-.48c.2-.32.39-.31.7-.09a17.43,17.43,0,0,0,3.24,1.88c.58.26,1.39.37,1.67.81s-.19,1.19-.28,1.82a1.23,1.23,0,0,0,.92,1.52,1.25,1.25,0,0,0,1.5-1c.12-.44.22-.89.3-1.33s.15-.42.49-.34a18.82,18.82,0,0,0,4.61.43c.3,0,.4.09.41.38,0,.59.09,1.18.16,1.77a.82.82,0,0,1-.46,1,3.88,3.88,0,0,0-2,3.85,3.92,3.92,0,0,0,2.64,3.51A4.1,4.1,0,0,0,252.88,669.57ZM243,613.78a1.63,1.63,0,1,1,2.27-.2A1.66,1.66,0,0,1,243,613.78Z" transform="translate(-42.08 -457.5)"/><path class="cls-1" d="M263.36,620.08a1.61,1.61,0,1,1,2.27-.16A1.63,1.63,0,0,1,263.36,620.08Z" transform="translate(-42.08 -457.5)"/><path class="cls-1" d="M271.82,659.51a4.13,4.13,0,0,0-5.62-5.14c-.22.1-.42.36-.72.08-.55-.48-1.11-.94-1.68-1.4-.2-.16-.22-.28-.06-.5a20.05,20.05,0,0,0,2.54-4.74c.1-.26.23-.35.51-.27.55.14,1.1.26,1.66.37A1.22,1.22,0,0,0,270,647a1.24,1.24,0,0,0-1-1.54c-.48-.12-1-.24-1.46-.32-.33,0-.4-.17-.33-.5a19.36,19.36,0,0,0,.45-4.68c0-.29.08-.4.37-.42.64,0,1.28-.08,1.91-.17a.67.67,0,0,1,.8.4,4,4,0,0,0,4.61,1.94,4.11,4.11,0,0,0,.08-7.93,3.76,3.76,0,0,0-4.57,1.79,2.3,2.3,0,0,1-2.5,1.44,2,2,0,0,0-.48.05c-.34.07-.47-.05-.52-.4a17.56,17.56,0,0,0-.77-3.12c-.18-.55-.66-1.21-.5-1.64s1-.52,1.58-.79l.06,0a1.27,1.27,0,0,0,.69-1.65,1.22,1.22,0,0,0-1.64-.66,14.36,14.36,0,0,0-1.45.62c-.37.18-.58.14-.8-.24a18.86,18.86,0,0,0-3.18-4c-.25-.24-.3-.39-.06-.66a12.62,12.62,0,0,0,1.06-1.26.87.87,0,0,1,1.11-.4,4.07,4.07,0,0,0,4.55-2,4.12,4.12,0,0,0-5.65-5.58,3.83,3.83,0,0,0-1.89,4.6,2,2,0,0,1-.62,2.5,4.34,4.34,0,0,0-.48.58c-.17.23-.31.27-.56.09a19.31,19.31,0,0,0-4.67-2.51c-.35-.12-.37-.3-.29-.61a16.07,16.07,0,0,0,.37-1.67,1.24,1.24,0,0,0-2.42-.55c-.07.22-.11.44-.16.67-.28,1.2-.27,1.2-1.47,1.06H250a1.24,1.24,0,0,0-.47,2.43,6.36,6.36,0,0,0,.73.16,19,19,0,0,1,8.6,4.27,18.68,18.68,0,0,1-1.19,28.92,19.39,19.39,0,0,1-4.91,2.64,1.26,1.26,0,1,0,.88,2.33,6.81,6.81,0,0,0,.89-.34c.3-.14.44-.1.55.23a14,14,0,0,0,.62,1.43,1.24,1.24,0,0,0,2.28-1,11.6,11.6,0,0,0-.63-1.5c-.19-.38-.1-.55.24-.75a20.37,20.37,0,0,0,2.91-2.14c.5-.42.93-1.27,1.45-1.22s1,.8,1.61,1.19a.85.85,0,0,1,.36,1.07,4.07,4.07,0,0,0,2.84,4.91A4.14,4.14,0,0,0,271.82,659.51Zm3.54-23a1.66,1.66,0,0,1,.19,2.28,1.62,1.62,0,0,1-2.52-2A1.66,1.66,0,0,1,275.36,636.49Zm-8.44,22.9a1.63,1.63,0,1,1,2.27-.26A1.62,1.62,0,0,1,266.92,659.39Z" transform="translate(-42.08 -457.5)"/><path class="cls-1" d="M246.24,627.19a5.75,5.75,0,1,0,.75,8.08A5.76,5.76,0,0,0,246.24,627.19Zm-5.78,6.91a3.26,3.26,0,1,1,4.6-.4A3.3,3.3,0,0,1,240.46,634.1Z" transform="translate(-42.08 -457.5)"/><path class="cls-1" d="M244.28,645.55a3.82,3.82,0,1,0,.51,5.37A3.83,3.83,0,0,0,244.28,645.55ZM241,649.48a1.3,1.3,0,0,1-.16-1.83,1.31,1.31,0,1,1,2,1.71A1.31,1.31,0,0,1,241,649.48Z" transform="translate(-42.08 -457.5)"/><path class="cls-1" d="M258.93,637.76a3.82,3.82,0,1,0,.54,5.38A3.83,3.83,0,0,0,258.93,637.76Zm-3.24,4a1.29,1.29,0,0,1-.2-1.82,1.35,1.35,0,0,1,1.89-.19,1.36,1.36,0,0,1,.15,1.85A1.31,1.31,0,0,1,255.69,641.72Z" transform="translate(-42.08 -457.5)"/><path class="cls-6" d="M340.54,731.07a43.06,43.06,0,1,1-43-43.08A43.06,43.06,0,0,1,340.54,731.07Z" transform="translate(-42.08 -457.5)"/><path class="cls-7" d="M255.88,727.6h.62c5.69-.27,10.31,1.15,12.78,7,1.11,2.64,3.2,4.85,4.59,7.4,1.18,2.17,1.91,1.65,3.15.07a220.17,220.17,0,0,1,23.21-25.62,123.62,123.62,0,0,1,16-12.44c6.8-4.47,14.06-3.49,21.36-1.93,1.3.28,2.26,1.09.48,2.18-19.74,12.12-33.71,30-47.8,47.79a17,17,0,0,0-1.91,2.45c-2.9,5.59-7.81,6.64-13.58,6.7-6.43.06-11.36-1.13-14.69-7.7-3.77-7.47-8.9-14.25-13.42-21.34-1.71-2.66-1.4-3.44,1.8-4,2.46-.4,4.95-.53,7.43-.78C255.87,727.48,255.87,727.54,255.88,727.6Z" transform="translate(-42.08 -457.5)"/><path class="cls-1" d="M508.62,475.36,493.41,590.3H448L430.74,475.36h31.52q5.49,47.49,7.85,80.37,2.31-33.22,4.91-59l2.08-21.37Z" transform="translate(-42.08 -457.5)"/><path class="cls-1" d="M563.41,475.36,580.5,590.3H550l-1.61-20.66H537.66l-1.8,20.66H505l15.25-114.94Zm-15.84,73.91Q545.3,529.74,543,501q-4.57,33-5.74,48.28Z" transform="translate(-42.08 -457.5)"/><path class="cls-1" d="M655.36,525.41H625.48v-20c0-5.8-.32-9.43-1-10.87s-2-2.16-4.23-2.16q-3.69,0-4.68,2.63t-1,11.35v53.39c0,5.59.33,9.23,1,10.94s2.15,2.55,4.47,2.55,3.68-.85,4.37-2.56,1-5.72,1-12V544.22h29.88v4.48q0,17.85-2.52,25.31T641.7,587.1q-8.62,5.61-21.26,5.61-13.14,0-21.66-4.75a23.14,23.14,0,0,1-11.29-13.17q-2.76-8.41-2.76-25.31V515.9a149.08,149.08,0,0,1,.85-18.64,26.14,26.14,0,0,1,5.07-12,28.32,28.32,0,0,1,11.72-9.05,42.3,42.3,0,0,1,17.21-3.3q13.21,0,21.8,5.1t11.29,12.73q2.7,7.62,2.69,23.71Z" transform="translate(-42.08 -457.5)"/><path class="cls-1" d="M734,475.36v76.82q0,13.05-.86,18.35a24.78,24.78,0,0,1-5,10.86,26.12,26.12,0,0,1-11,8.45,41.65,41.65,0,0,1-16.15,2.87,45.44,45.44,0,0,1-18.17-3.4q-7.89-3.42-11.79-8.88a24.55,24.55,0,0,1-4.61-11.54q-.71-6.06-.71-25.52v-68h29.89v86.19q0,7.51.81,9.62a3.21,3.21,0,0,0,3.3,2.09,3.45,3.45,0,0,0,3.66-2.31c.54-1.53.82-5.17.82-10.89v-84.7Z" transform="translate(-42.08 -457.5)"/><path class="cls-1" d="M812.33,475.36V590.3H786.14l-15.55-52.25V590.3h-25V475.36h25l16.75,51.75V475.36Z" transform="translate(-42.08 -457.5)"/><path class="cls-1" d="M876,475.36,893.09,590.3H862.54l-1.6-20.66H850.25l-1.8,20.66h-30.9L832.8,475.36Zm-15.84,73.91q-2.28-19.53-4.56-48.28-4.56,33-5.73,48.28Z" transform="translate(-42.08 -457.5)"/><path class="cls-8" d="M990.38,475.36V590.3H964.26l0-77.6-10.4,77.6H935.29l-11-75.82,0,75.82H898.16V475.36h38.68q1.73,10.36,3.55,24.44L944.63,529l6.87-53.67Z" transform="translate(-42.08 -457.5)"/><path class="cls-8" d="M1002.38,475.36h49.84v23h-20v21.8h18.67V542h-18.67V567.3h21.94v23h-51.83Z" transform="translate(-42.08 -457.5)"/><path class="cls-8" d="M1123.39,475.36l-10.5,50.83,15.83,64.11H1101a378.13,378.13,0,0,1-9.09-41.89q-1.12,11-3.15,23.15L1086,590.3h-29.11l10.86-64.11-10.86-50.83h28.9q.78,4.75,3.11,15.83,1.88,8.44,3.06,15.55l6.39-31.38Z" transform="translate(-42.08 -457.5)"/><path d="M443.65,654.42a19.36,19.36,0,0,1-7.48-7.24,21.13,21.13,0,0,1,0-20.74,19.3,19.3,0,0,1,7.51-7.24,22.06,22.06,0,0,1,10.74-2.62,22.34,22.34,0,0,1,8.48,1.55,17.39,17.39,0,0,1,6.56,4.61l-3.68,3.56a14.72,14.72,0,0,0-11.13-4.69,16.21,16.21,0,0,0-8,2,14.33,14.33,0,0,0-5.57,5.46,16,16,0,0,0,0,15.54,14.33,14.33,0,0,0,5.57,5.46,16.1,16.1,0,0,0,8,2,14.76,14.76,0,0,0,11.13-4.74l3.68,3.56a17.61,17.61,0,0,1-6.59,4.63,22.18,22.18,0,0,1-8.5,1.59A21.91,21.91,0,0,1,443.65,654.42Z" transform="translate(-42.08 -457.5)"/><path d="M506.25,651.68v4.91H477.54V617h27.92V622H483.19V634.1H503v4.8H483.19v12.78Z" transform="translate(-42.08 -457.5)"/><path d="M541.86,656.59l-8.54-12.15c-1.05.08-1.88.11-2.48.11h-9.78v12h-5.65V617h15.43q7.68,0,12.09,3.67a12.46,12.46,0,0,1,4.41,10.12,13.22,13.22,0,0,1-2.26,7.8,12.76,12.76,0,0,1-6.44,4.69L548,656.59Zm-3-19.16a9.11,9.11,0,0,0,0-13.2Q536,622,530.67,622h-9.61v17.8h9.61Q536,639.75,538.86,637.43Z" transform="translate(-42.08 -457.5)"/><path d="M563.79,622H550.22V617H583V622H569.38v34.64h-5.59Z" transform="translate(-42.08 -457.5)"/><path d="M589.11,617h5.65v39.56h-5.65Z" transform="translate(-42.08 -457.5)"/><path d="M612.28,622v13.79h19.84v4.86H612.28v16h-5.65V617h27.92V622Z" transform="translate(-42.08 -457.5)"/><path d="M642.52,617h5.65v39.56h-5.65Z" transform="translate(-42.08 -457.5)"/><path d="M667,654.42a19.45,19.45,0,0,1-7.49-7.24,21.2,21.2,0,0,1,0-20.74,19.4,19.4,0,0,1,7.52-7.24,22,22,0,0,1,10.74-2.62,22.34,22.34,0,0,1,8.48,1.55,17.27,17.27,0,0,1,6.55,4.61l-3.67,3.56A14.73,14.73,0,0,0,678,621.61a16.21,16.21,0,0,0-8,2,14.33,14.33,0,0,0-5.57,5.46,16,16,0,0,0,0,15.54,14.33,14.33,0,0,0,5.57,5.46,16.1,16.1,0,0,0,8,2,14.78,14.78,0,0,0,11.13-4.74l3.67,3.56a17.49,17.49,0,0,1-6.58,4.63,22.2,22.2,0,0,1-8.51,1.59A21.9,21.9,0,0,1,667,654.42Z" transform="translate(-42.08 -457.5)"/><path d="M725.15,646.7h-21l-4.35,9.89H694L711.87,617h5.6l18,39.56h-5.93Zm-2-4.52-8.54-19.39-8.53,19.39Z" transform="translate(-42.08 -457.5)"/><path d="M747.73,654.42a19.45,19.45,0,0,1-7.49-7.24,21.2,21.2,0,0,1,0-20.74,19.4,19.4,0,0,1,7.52-7.24,22,22,0,0,1,10.74-2.62,22.34,22.34,0,0,1,8.48,1.55,17.39,17.39,0,0,1,6.56,4.61l-3.68,3.56a14.73,14.73,0,0,0-11.13-4.69,16.21,16.21,0,0,0-8,2,14.33,14.33,0,0,0-5.57,5.46,16,16,0,0,0,0,15.54,14.33,14.33,0,0,0,5.57,5.46,16.1,16.1,0,0,0,8,2,14.76,14.76,0,0,0,11.13-4.74l3.68,3.56a17.61,17.61,0,0,1-6.59,4.63,22.2,22.2,0,0,1-8.51,1.59A21.9,21.9,0,0,1,747.73,654.42Z" transform="translate(-42.08 -457.5)"/><path d="M781.62,617h5.65v39.56h-5.65Z" transform="translate(-42.08 -457.5)"/><path d="M806.2,654.42a19.52,19.52,0,0,1-7.54-7.27,20.88,20.88,0,0,1,0-20.68,19.52,19.52,0,0,1,7.54-7.27,23.45,23.45,0,0,1,21.54,0,19.4,19.4,0,0,1,7.52,7.24,21.2,21.2,0,0,1,0,20.74,19.4,19.4,0,0,1-7.52,7.24,23.37,23.37,0,0,1-21.54,0ZM824.83,650a14.51,14.51,0,0,0,5.48-5.46,16,16,0,0,0,0-15.54,14.51,14.51,0,0,0-5.48-5.46,15.65,15.65,0,0,0-7.83-2,15.92,15.92,0,0,0-7.88,2,14.32,14.32,0,0,0-5.54,5.46,16,16,0,0,0,0,15.54,14.32,14.32,0,0,0,5.54,5.46,15.81,15.81,0,0,0,7.88,2A15.54,15.54,0,0,0,824.83,650Z" transform="translate(-42.08 -457.5)"/><path d="M880.64,617v39.56H876l-23.74-29.5v29.5h-5.65V617h4.63L875,646.53V617Z" transform="translate(-42.08 -457.5)"/><path d="M907.71,617h16.68a24.19,24.19,0,0,1,11.13,2.48,18.29,18.29,0,0,1,7.55,7,21.19,21.19,0,0,1,0,20.63,18.34,18.34,0,0,1-7.55,7,24.19,24.19,0,0,1-11.13,2.48H907.71Zm16.34,34.65a18.36,18.36,0,0,0,8.45-1.87,13.48,13.48,0,0,0,5.62-5.23,16.24,16.24,0,0,0,0-15.54,13.48,13.48,0,0,0-5.62-5.23,18.36,18.36,0,0,0-8.45-1.86H913.37v29.73Z" transform="translate(-42.08 -457.5)"/><path d="M954.4,617h5.65v39.56H954.4Z" transform="translate(-42.08 -457.5)"/><path d="M999.33,636.58h5.43V652a21,21,0,0,1-6.84,3.74,25.74,25.74,0,0,1-8.14,1.3A22.13,22.13,0,0,1,979,654.42a19.55,19.55,0,0,1-7.55-7.24,21.05,21.05,0,0,1,0-20.77,19.12,19.12,0,0,1,7.58-7.23,22.49,22.49,0,0,1,10.88-2.6,22.84,22.84,0,0,1,8.61,1.55,17.64,17.64,0,0,1,6.59,4.55l-3.5,3.5a15.94,15.94,0,0,0-11.48-4.57,16.71,16.71,0,0,0-8.11,1.95,14.3,14.3,0,0,0-5.62,5.42,15.93,15.93,0,0,0,0,15.6A14.46,14.46,0,0,0,982,650a16.39,16.39,0,0,0,8.06,2,16.68,16.68,0,0,0,9.26-2.54Z" transform="translate(-42.08 -457.5)"/><path d="M1015.55,617h5.66v39.56h-5.66Z" transform="translate(-42.08 -457.5)"/><path d="M1040.93,622h-13.56V617h32.72V622h-13.56v34.64h-5.6Z" transform="translate(-42.08 -457.5)"/><path d="M1089.48,646.7h-21l-4.35,9.89h-5.82L1076.2,617h5.6l18,39.56h-5.93Zm-2-4.52L1079,622.79l-8.53,19.39Z" transform="translate(-42.08 -457.5)"/><path d="M1105.65,617h5.65v34.65h21.42v4.91h-27.07Z" transform="translate(-42.08 -457.5)"/><text class="cls-9" transform="translate(533.07 294.59)"><tspan class="cls-10">T</tspan><tspan class="cls-11" x="21.96" y="0">u p</tspan><tspan class="cls-12" x="80.75" y="0">a</tspan><tspan x="103.64" y="0">s</tspan><tspan class="cls-13" x="120.12" y="0">a</tspan><tspan class="cls-14" x="142.65" y="0">p</tspan><tspan class="cls-15" x="163.2" y="0">o</tspan><tspan class="cls-16" x="186.96" y="0">r</tspan><tspan class="cls-17" x="204.19" y="0">t</tspan><tspan x="218.75" y="0">e de s</tspan><tspan class="cls-18" x="333.61" y="0">a</tspan><tspan class="cls-17" x="354.77" y="0">l</tspan><tspan class="cls-19" x="369.77" y="0">u</tspan><tspan x="393.92" y="0">d</tspan></text></svg>