<svg width="971" height="188" viewBox="0 0 971 188" fill="none" xmlns="http://www.w3.org/2000/svg">
<ellipse cx="94" cy="94.5" rx="89" ry="88.5" fill="white"/>
<path d="M78.9 0.638376C59.7 4.83838 47 10.5384 34.7 20.4384C19.6 32.4384 8.7 48.9384 2.8 68.4384C0.2 76.7384 0 78.8384 0 93.9384C0 109.038 0.2 111.138 2.8 119.438C12.6 151.838 37.7 176.638 69.1 185.038C80.2 188.038 100.3 188.738 111.5 186.438C140.4 180.638 164.3 162.538 177.4 136.438C184.6 122.138 187.4 110.238 187.4 93.9384C187.4 77.6384 184.6 65.7384 177.4 51.4384C164.4 25.6384 140.6 7.33838 112.2 1.53838C105 0.0383761 84 -0.561624 78.9 0.638376ZM128.8 41.6384C122.9 50.3384 117.4 58.2384 116.6 59.2384C115.8 60.1384 115.4 61.2384 115.7 61.5384C116.5 62.4384 107.6 79.9384 106.4 79.9384C104.6 79.9384 105.4 81.6384 107.9 82.9384C109.3 83.6384 110.4 85.1384 110.4 86.1384C110.4 87.2384 103 98.9384 93.9 112.238L77.4 136.338L79.4 138.438C81.3 140.438 82.1 142.938 80.8 142.938C80.5 142.938 78.3 141.538 75.9 139.938C73.5 138.238 71.2 136.938 70.7 136.938C70.3 136.938 67.2 141.038 64 145.938C58.3 154.638 58.2 155.038 59.9 156.938C61.7 158.838 61.4 161.938 59.4 161.938C58.4 161.938 45.8 153.838 40.8 149.938C39 148.638 38.8 148.038 39.9 146.638C40.9 145.238 41.7 145.138 43.7 145.838C46.2 146.838 46.6 146.438 51.9 138.838C55 134.438 57.7 130.238 58 129.538C58.3 128.638 56.8 126.938 54 124.938C49.2 121.738 47.9 119.238 51.4 120.338C52.5 120.638 54.2 121.138 55.2 121.438C56.5 121.838 60.4 116.738 73.3 97.8384C82.2 84.6384 90.3 73.5384 91.1 73.2384C91.9 72.9384 93.9 73.4384 95.5 74.3384C98 75.8384 98.4 75.8384 98.4 74.5384C98.4 73.7384 102.2 69.1384 106.9 64.4384C111.6 59.6384 119.2 50.1384 124 43.1384C132.3 30.8384 136.5 25.9384 138.5 25.9384C139 25.9384 134.7 33.0384 128.8 41.6384Z" fill="#1F4F43"/>
<path d="M76.6 99.4384C68.2 111.738 61.1 122.438 60.8 123.238C60.5 124.138 62.8 126.238 67.3 129.238L74.3 133.838L78.3 128.238L82.3 122.538L77.4 119.238C74.6 117.338 72.4 115.538 72.4 115.038C72.4 112.938 74 113.338 78.8 116.538C83.5 119.638 84 119.838 85.2 118.238C87 115.738 86.8 115.438 81.4 111.938C78.7 110.138 76.7 108.338 77 107.838C77.9 106.338 79.3 106.838 84 110.038C86.5 111.738 88.6 112.938 88.8 112.738C88.9 112.638 89.5 111.738 90.2 110.838C91.3 109.338 90.8 108.638 86.4 105.438C82.8 102.838 81.6 101.338 82.3 100.638C83 99.9384 84.7 100.538 87.8 102.738C93 106.438 93.5 106.538 95.1 104.038C96.2 102.338 95.8 101.738 91.4 98.9384C88.6 97.1384 86.4 95.3384 86.4 94.9384C86.4 92.9384 88.3 93.2384 92.7 96.1384C96.6 98.6384 97.7 98.9384 98.9 97.9384C101.2 96.0384 100.8 95.2384 95.5 91.6384C92 89.3384 90.8 87.9384 91.4 87.0384C92 85.9384 93.2 86.3384 96.7 88.8384C99.2 90.5384 101.7 91.9384 102.2 91.9384C103 91.9384 106.4 87.6384 106.4 86.6384C106.4 86.2384 92.9 76.9384 92.3 76.9384C92.1 77.0384 85 87.1384 76.6 99.4384Z" fill="#1F4F43"/>
<path d="M959.7 28.8383C954.7 32.5383 948.7 36.8383 946.5 38.3383L942.5 41.1383L929.9 32.0383L917.4 23.0383V32.3383V41.7383L923.9 45.9383C927.5 48.2383 930.2 50.5383 929.9 50.9383C929.6 51.3383 926.7 53.4383 923.4 55.5383L917.4 59.4383V69.2383V79.0383L925.2 73.5383C929.4 70.5383 935.2 66.4383 938.1 64.4383L943.2 60.8383L955.7 69.8383C962.6 74.8383 968.5 78.9383 968.8 78.9383C969.1 78.9383 969.4 74.6383 969.4 69.4383V59.9383L962.9 55.8383C959.3 53.6383 956.4 51.4383 956.4 50.9383C956.4 50.5383 959.3 48.2383 962.9 45.9383L969.4 41.7383V31.8383C969.4 26.3383 969.3 21.9383 969.2 21.9383C969 22.0383 964.8 25.0383 959.7 28.8383Z" fill="#1F4F43"/>
<path d="M230.6 24.5384C208 30.5384 202.5 60.6384 221.5 74.2384C225.3 77.0384 234.7 79.9384 239.8 79.9384C245.4 79.9384 254.3 76.7384 258.1 73.3384L261.9 70.0384L257.9 66.5384C254 63.2384 253.8 63.1384 251.9 64.9384C248.4 68.0384 245.7 68.9384 239.9 68.9384C233.2 68.9384 229.5 67.1384 225.7 62.2384C223.2 59.0384 222.9 57.7384 222.9 51.4384C222.9 45.1384 223.2 43.8384 225.7 40.6384C229.5 35.7384 233.2 33.9384 239.9 33.9384C245.7 33.9384 248.4 34.8384 251.9 38.0384C253.9 39.8384 254 39.7384 257.9 36.3384L261.9 32.9384L258.1 29.5384C254.1 25.9384 245.3 22.9384 239.3 23.0384C237.4 23.0384 233.5 23.7384 230.6 24.5384Z" fill="#1F4F43"/>
<path d="M580.6 24.5384C558 30.5384 552.5 60.6384 571.5 74.2384C575.3 77.0384 584.7 79.9384 589.8 79.9384C595.4 79.9384 604.3 76.7384 608.1 73.3384L611.9 70.0384L607.9 66.5384C604 63.2384 603.8 63.1384 601.9 64.9384C598.4 68.0384 595.7 68.9384 589.9 68.9384C583.2 68.9384 579.5 67.1384 575.7 62.2384C573.2 59.0384 572.9 57.7384 572.9 51.4384C572.9 45.1384 573.2 43.8384 575.7 40.6384C579.5 35.7384 583.2 33.9384 589.9 33.9384C595.7 33.9384 598.4 34.8384 601.9 38.0384C603.9 39.8384 604 39.7384 607.9 36.3384L611.9 32.9384L608.1 29.5384C604.1 25.9384 595.3 22.9384 589.3 23.0384C587.4 23.0384 583.5 23.7384 580.6 24.5384Z" fill="#1F4F43"/>
<path d="M269.4 51.3384V78.9384H275.9H282.4V71.4384V63.8384L288.6 64.1384L294.8 64.4384L299.9 71.6384L304.9 78.8384L311.2 78.9384C314.6 78.9384 317.4 78.6384 317.4 78.3384C317.4 78.0384 314.9 74.1384 311.7 69.7384C306.5 62.2384 306.2 61.6384 308 60.6384C318.3 54.9384 320.3 39.7384 311.9 30.8384C306.8 25.4384 303.6 24.5384 285.7 24.1384L269.4 23.7384V51.3384ZM298.9 35.3384C302.9 37.0384 304.4 39.5384 304.4 44.7384C304.4 47.5384 303.7 49.2384 301.8 51.0384C299.6 53.1384 298.1 53.4384 290.8 53.8384L282.4 54.1384V44.0384V33.9384H288.9C292.5 33.9384 297 34.5384 298.9 35.3384Z" fill="#1F4F43"/>
<path d="M327.4 51.4384V78.9384H348.9H370.4V73.9384V68.9384H355.4H340.4V62.4384V55.9384H353.4H366.4V50.9384V45.9384H353.4H340.4V39.9384V33.9384H354.9H369.4V28.9384V23.9384H348.4H327.4V51.4384Z" fill="#1F4F43"/>
<path d="M380.4 51.4384V79.1384L397.7 78.7384C412.9 78.3384 415.5 78.0384 420.1 76.0384C429.6 71.8384 436.4 61.5384 436.4 51.4384C436.4 41.3384 429.6 31.0384 420.1 26.8384C415.5 24.8384 412.9 24.5384 397.7 24.1384L380.4 23.7384V51.4384ZM415.9 36.9384C421.3 40.3384 423.4 44.3384 423.4 51.4384C423.4 63.1384 417.7 67.9384 402.8 68.7384L393.4 69.2384V51.4384V33.6384L402.8 34.1384C410.3 34.5384 413 35.1384 415.9 36.9384Z" fill="#1F4F43"/>
<path d="M446.4 51.4384V78.9384H467.9H489.4V73.9384V68.9384H474.4H459.4V62.4384V55.9384H472.4H485.4V50.9384V45.9384H472.4H459.4V39.9384V33.9384H473.9H488.4V28.9384V23.9384H467.4H446.4V51.4384Z" fill="#1F4F43"/>
<path d="M498.4 51.4384V78.9384H504.9H511.4L511.6 62.3384L511.9 45.7384L525.4 62.3384L538.9 78.9384H544.2H549.4V51.4384V23.9384H542.9H536.4L536.2 40.3384L535.9 56.6384L522.5 40.3384L509.1 23.9384H503.7H498.4V51.4384Z" fill="#1F4F43"/>
<path d="M620.4 51.4384V78.9384H626.9H633.4V51.4384V23.9384H626.9H620.4V51.4384Z" fill="#1F4F43"/>
<path d="M662 29.1383C660.7 32.0383 655.1 44.4383 649.6 56.7383L639.5 79.0383L646.1 78.7383L652.6 78.4383L654.8 72.9383L657 67.4383H670.3H683.6L685.8 72.9383L688 78.4383L694.6 78.7383L701.3 79.0383L693.2 61.2383C688.8 51.4383 683.3 39.1383 681 33.9383L676.8 24.4383L670.5 24.1383L664.3 23.8383L662 29.1383ZM675 46.9383L679.2 56.9383H670.3H661.4L663 53.1383C663.8 51.1383 665.7 46.6383 667.2 43.1383C668.6 39.7383 670 36.9383 670.3 36.9383C670.6 36.9383 672.8 41.4383 675 46.9383Z" fill="#1F4F43"/>
<path d="M706.4 51.4384V78.9384H726.9H747.4V73.9384V68.9384H733.4H719.4V46.4384V23.9384H712.9H706.4V51.4384Z" fill="#1F4F43"/>
<path d="M754.4 51.4384V78.9384H760.9H767.4V51.4384V23.9384H760.9H754.4V51.4384Z" fill="#1F4F43"/>
<path d="M778.4 28.9384V33.9384H792.9C800.9 33.9384 807.4 34.1384 807.4 34.4384C807.4 34.7384 800.7 43.0384 792.4 52.9384C778.5 69.5384 777.4 71.1384 777.4 74.9384V78.9384H801.4H825.4V73.9384V69.0384L809.8 68.7384L794.2 68.4384L809.3 50.2384C823.3 33.3384 824.4 31.7384 824.4 28.0384V23.9384H801.4H778.4V28.9384Z" fill="#1F4F43"/>
<path d="M849 29.1383C847.7 32.0383 842.1 44.4383 836.6 56.7383L826.5 79.0383L833.1 78.7383L839.6 78.4383L841.8 72.9383L844 67.4383H857.3H870.6L872.8 72.9383L875 78.4383L881.6 78.7383L888.3 79.0383L880.2 61.2383C875.8 51.4383 870.3 39.1383 868 33.9383L863.8 24.4383L857.5 24.1383L851.3 23.8383L849 29.1383ZM862 46.9383L866.2 56.9383H857.3H848.4L850 53.1383C850.8 51.1383 852.7 46.6383 854.2 43.1383C855.6 39.7383 857 36.9383 857.3 36.9383C857.6 36.9383 859.8 41.4383 862 46.9383Z" fill="#1F4F43"/>
<path d="M917.4 90.1384L917.5 97.4384L931.5 105.838L945.5 114.238L939.7 117.938C936.5 119.938 930.2 123.738 925.7 126.438L917.5 131.438L917.4 138.638V145.938H943.4H969.4V137.938V130.038L958.2 129.738L946.9 129.438L955.6 123.938C964.3 118.538 964.4 118.438 964.4 114.438C964.4 110.338 964.4 110.338 955.2 104.938L945.9 99.4384L957.7 99.1384L969.4 98.8384V90.9384V82.9384H943.4H917.4V90.1384Z" fill="#1F4F43"/>
<path d="M602.9 95.3384C582.6 100.238 569.9 117.538 571.7 137.938C573.5 158.638 588.8 173.038 610.9 174.638C624.2 175.638 638 171.038 645.6 163.238L649.2 159.438L641.1 152.238L633 145.038L629.5 148.138C622.7 154.138 615.3 155.438 607.8 152.038C602.8 149.738 599.8 145.738 598.3 139.138C596.1 129.838 600.2 120.338 607.8 116.838C615.3 113.438 622.7 114.738 629.5 120.738L633 123.838L641.1 116.638L649.2 109.438L645.6 105.638C636.4 96.0384 618 91.6384 602.9 95.3384Z" fill="#1F4F43"/>
<path d="M206.4 105.938V115.938H217.9H229.4V144.438V172.938H242.4H255.4V144.438V115.938H266.9H278.4V105.938V95.9384H242.4H206.4V105.938Z" fill="#1F4F43"/>
<path d="M283.6 122.638L283.9 149.438L286.8 155.738C290.3 163.338 296.3 168.938 304.3 172.138C312.3 175.338 329.3 175.338 337.5 172.138C345.4 169.038 350.7 164.038 354.6 156.138L357.9 149.538L358.2 122.738L358.5 95.9383H345.5H332.4V120.138C332.4 141.238 332.2 144.938 330.6 147.938C326.4 156.438 314.6 155.838 311 146.938C309.7 143.638 309.4 138.738 309.4 119.438V95.9383H296.3H283.3L283.6 122.638Z" fill="#1F4F43"/>
<path d="M394.2 97.7384C394.6 98.7384 401.9 116.138 410.4 136.238L425.9 172.838H438.9H451.9L467.4 136.238C475.9 116.138 483.2 98.7384 483.6 97.7384C484.3 96.0384 483.5 95.9384 471.5 95.9384H458.7L449.7 117.538C444.8 129.338 440.3 138.938 439.8 138.838C439.3 138.638 435 129.038 430.3 117.438L421.7 96.4384L407.6 96.1384C394.1 95.9384 393.5 95.9384 394.2 97.7384Z" fill="#1F4F43"/>
<path d="M511 96.7384C510.5 97.5384 487 150.938 480.8 165.138L477.5 172.938H490.7H504L506.4 166.438L508.8 159.938L523.8 160.138L538.8 160.438L541.3 166.638L543.7 172.938H557.1C564.6 172.938 570.4 172.538 570.2 172.038C570.1 171.538 562.5 154.238 553.4 133.538L536.9 95.9384H524.2C517.2 95.9384 511.3 96.3384 511 96.7384ZM528.3 132.938L531.2 140.438L524.2 140.738C520.3 140.938 517 140.838 516.8 140.638C516.6 140.438 518.1 136.138 520.1 131.038C523 123.938 524 122.138 524.6 123.638C525 124.638 526.7 128.838 528.3 132.938Z" fill="#1F4F43"/>
<path d="M656.6 122.638L656.9 149.438L659.8 155.738C663.3 163.338 669.3 168.938 677.3 172.138C685.3 175.338 702.3 175.338 710.5 172.138C718.4 169.038 723.7 164.038 727.6 156.138L730.9 149.538L731.2 122.738L731.5 95.9383H718.5H705.4V120.138C705.4 141.238 705.2 144.938 703.6 147.938C699.4 156.438 687.6 155.838 684 146.938C682.7 143.638 682.4 138.738 682.4 119.438V95.9383H669.3H656.3L656.6 122.638Z" fill="#1F4F43"/>
<path d="M743.4 134.438V172.938H755.9H768.4L768.6 155.838L768.9 138.738L783.2 155.838L797.4 172.938H807.9H818.4V134.438V95.9384H805.9H793.4L793.2 113.038L792.9 130.138L778.6 113.038L764.4 95.9384H753.9H743.4V134.438Z" fill="#1F4F43"/>
<path d="M857 96.7384C856.5 97.5384 833 150.938 826.8 165.138L823.5 172.938H836.7H850L852.4 166.438L854.8 159.938L869.8 160.138L884.8 160.438L887.3 166.638L889.7 172.938H903.1C910.6 172.938 916.4 172.538 916.2 172.038C916.1 171.538 908.5 154.238 899.4 133.538L882.9 95.9384H870.2C863.2 95.9384 857.3 96.3384 857 96.7384ZM874.3 132.938L877.2 140.438L870.2 140.738C866.3 140.938 863 140.838 862.8 140.638C862.6 140.438 864.1 136.138 866.1 131.038C869 123.938 870 122.138 870.6 123.638C871 124.638 872.7 128.838 874.3 132.938Z" fill="#1F4F43"/>
<path d="M956.8 152.938C949.6 155.838 949.6 167.438 956.7 170.438C960.6 172.038 964 171.438 967.1 168.638C975 161.538 966.7 148.938 956.8 152.938Z" fill="#1F4F43"/>
</svg>
